<?xml version="1.0" encoding="UTF-8" standalone="no"?>
<!DOCTYPE svg PUBLIC "-//W3C//DTD SVG 1.1//EN"
 "http://www.w3.org/Graphics/SVG/1.1/DTD/svg11.dtd">
<!-- Generated by graphviz version 2.40.1 (20161225.0304)
 -->
<!-- Title: Filter Pages: 1 -->
<svg width="959pt" height="2014pt"
 viewBox="0.00 0.00 958.75 2014.00" xmlns="http://www.w3.org/2000/svg" xmlns:xlink="http://www.w3.org/1999/xlink">
<g id="graph0" class="graph" transform="scale(1 1) rotate(0) translate(4 2010)">
<title>Filter</title>
<polygon fill="#ffffff" stroke="transparent" points="-4,4 -4,-2010 954.7495,-2010 954.7495,4 -4,4"/>
<!-- 0 -->
<g id="node1" class="node">
<title>0</title>
<polygon fill="none" stroke="#000000" points="431.917,-598.5 431.917,-1056.5 721.5938,-1056.5 721.5938,-598.5 431.917,-598.5"/>
<text text-anchor="middle" x="576.7554" y="-1041.3" font-family="Times,serif" font-size="14.00" fill="#000000">AlertDatabase</text>
<polyline fill="none" stroke="#000000" points="431.917,-1034.5 721.5938,-1034.5 "/>
<text text-anchor="start" x="439.917" y="-1019.3" font-family="Times,serif" font-size="14.00" fill="#000000">CFG_JSON_PATH : str</text>
<text text-anchor="start" x="439.917" y="-1005.3" font-family="Times,serif" font-size="14.00" fill="#000000">PROBABILITY_DB_FILE : str</text>
<text text-anchor="start" x="439.917" y="-991.3" font-family="Times,serif" font-size="14.00" fill="#000000">ROOT_PATH : str</text>
<text text-anchor="start" x="439.917" y="-977.3" font-family="Times,serif" font-size="14.00" fill="#000000">alert_probability</text>
<text text-anchor="start" x="439.917" y="-963.3" font-family="Times,serif" font-size="14.00" fill="#000000">database : dict</text>
<text text-anchor="start" x="439.917" y="-949.3" font-family="Times,serif" font-size="14.00" fill="#000000">database_cfg</text>
<polyline fill="none" stroke="#000000" points="431.917,-942.5 721.5938,-942.5 "/>
<text text-anchor="start" x="439.917" y="-927.3" font-family="Times,serif" font-size="14.00" fill="#000000">__init__()</text>
<text text-anchor="start" x="439.917" y="-913.3" font-family="Times,serif" font-size="14.00" fill="#000000">add()</text>
<text text-anchor="start" x="439.917" y="-899.3" font-family="Times,serif" font-size="14.00" fill="#000000">add_to_probability_database()</text>
<text text-anchor="start" x="439.917" y="-885.3" font-family="Times,serif" font-size="14.00" fill="#000000">database()</text>
<text text-anchor="start" x="439.917" y="-871.3" font-family="Times,serif" font-size="14.00" fill="#000000">get_capture_params()</text>
<text text-anchor="start" x="439.917" y="-857.3" font-family="Times,serif" font-size="14.00" fill="#000000">get_categories_by_alert_index()</text>
<text text-anchor="start" x="439.917" y="-843.3" font-family="Times,serif" font-size="14.00" fill="#000000">get_category_cnt_by_ip()</text>
<text text-anchor="start" x="439.917" y="-829.3" font-family="Times,serif" font-size="14.00" fill="#000000">get_category_with_max_score_from_last_alert()</text>
<text text-anchor="start" x="439.917" y="-815.3" font-family="Times,serif" font-size="14.00" fill="#000000">get_ip_prefix()</text>
<text text-anchor="start" x="439.917" y="-801.3" font-family="Times,serif" font-size="14.00" fill="#000000">get_last_alert_event()</text>
<text text-anchor="start" x="439.917" y="-787.3" font-family="Times,serif" font-size="14.00" fill="#000000">get_last_category_array()</text>
<text text-anchor="start" x="439.917" y="-773.3" font-family="Times,serif" font-size="14.00" fill="#000000">get_last_score()</text>
<text text-anchor="start" x="439.917" y="-759.3" font-family="Times,serif" font-size="14.00" fill="#000000">get_most_significant_category_from_array()</text>
<text text-anchor="start" x="439.917" y="-745.3" font-family="Times,serif" font-size="14.00" fill="#000000">get_probability_by_category()</text>
<text text-anchor="start" x="439.917" y="-731.3" font-family="Times,serif" font-size="14.00" fill="#000000">get_static_price()</text>
<text text-anchor="start" x="439.917" y="-717.3" font-family="Times,serif" font-size="14.00" fill="#000000">get_static_price_from_cfg()</text>
<text text-anchor="start" x="439.917" y="-703.3" font-family="Times,serif" font-size="14.00" fill="#000000">get_time_machine_direction()</text>
<text text-anchor="start" x="439.917" y="-689.3" font-family="Times,serif" font-size="14.00" fill="#000000">load_cfg()</text>
<text text-anchor="start" x="439.917" y="-675.3" font-family="Times,serif" font-size="14.00" fill="#000000">load_cfg_recursion()</text>
<text text-anchor="start" x="439.917" y="-661.3" font-family="Times,serif" font-size="14.00" fill="#000000">load_probability()</text>
<text text-anchor="start" x="439.917" y="-647.3" font-family="Times,serif" font-size="14.00" fill="#000000">parse_category_to_ip()</text>
<text text-anchor="start" x="439.917" y="-633.3" font-family="Times,serif" font-size="14.00" fill="#000000">print_database()</text>
<text text-anchor="start" x="439.917" y="-619.3" font-family="Times,serif" font-size="14.00" fill="#000000">recalculate_cnt_hour()</text>
<text text-anchor="start" x="439.917" y="-605.3" font-family="Times,serif" font-size="14.00" fill="#000000">reload_cfg()</text>
</g>
<!-- 1 -->
<g id="node2" class="node">
<title>1</title>
<polygon fill="none" stroke="#000000" points="347.5552,-1107.5 347.5552,-1397.5 529.9556,-1397.5 529.9556,-1107.5 347.5552,-1107.5"/>
<text text-anchor="middle" x="438.7554" y="-1382.3" font-family="Times,serif" font-size="14.00" fill="#000000">Filter</text>
<polyline fill="none" stroke="#000000" points="347.5552,-1375.5 529.9556,-1375.5 "/>
<text text-anchor="start" x="355.5552" y="-1360.3" font-family="Times,serif" font-size="14.00" fill="#000000">ROOT_PATH : str</text>
<text text-anchor="start" x="355.5552" y="-1346.3" font-family="Times,serif" font-size="14.00" fill="#000000">alert_database</text>
<text text-anchor="start" x="355.5552" y="-1332.3" font-family="Times,serif" font-size="14.00" fill="#000000">argv_param</text>
<text text-anchor="start" x="355.5552" y="-1318.3" font-family="Times,serif" font-size="14.00" fill="#000000">cfg_scan_alg_params : str</text>
<text text-anchor="start" x="355.5552" y="-1304.3" font-family="Times,serif" font-size="14.00" fill="#000000">daemon : bool</text>
<text text-anchor="start" x="355.5552" y="-1290.3" font-family="Times,serif" font-size="14.00" fill="#000000">dispatcher_options</text>
<text text-anchor="start" x="355.5552" y="-1276.3" font-family="Times,serif" font-size="14.00" fill="#000000">fd : NoneType</text>
<text text-anchor="start" x="355.5552" y="-1262.3" font-family="Times,serif" font-size="14.00" fill="#000000">global_capture_filter_cnt : int</text>
<text text-anchor="start" x="355.5552" y="-1248.3" font-family="Times,serif" font-size="14.00" fill="#000000">global_filter_cnt : int</text>
<text text-anchor="start" x="355.5552" y="-1234.3" font-family="Times,serif" font-size="14.00" fill="#000000">mapping_cfg</text>
<text text-anchor="start" x="355.5552" y="-1220.3" font-family="Times,serif" font-size="14.00" fill="#000000">shared_array : list</text>
<text text-anchor="start" x="355.5552" y="-1206.3" font-family="Times,serif" font-size="14.00" fill="#000000">shared_thread_event</text>
<text text-anchor="start" x="355.5552" y="-1192.3" font-family="Times,serif" font-size="14.00" fill="#000000">time_machine_params</text>
<polyline fill="none" stroke="#000000" points="347.5552,-1185.5 529.9556,-1185.5 "/>
<text text-anchor="start" x="355.5552" y="-1170.3" font-family="Times,serif" font-size="14.00" fill="#000000">__init__()</text>
<text text-anchor="start" x="355.5552" y="-1156.3" font-family="Times,serif" font-size="14.00" fill="#000000">calculate_price()</text>
<text text-anchor="start" x="355.5552" y="-1142.3" font-family="Times,serif" font-size="14.00" fill="#000000">reload_cfg()</text>
<text text-anchor="start" x="355.5552" y="-1128.3" font-family="Times,serif" font-size="14.00" fill="#000000">run()</text>
<text text-anchor="start" x="355.5552" y="-1114.3" font-family="Times,serif" font-size="14.00" fill="#000000">run_filter()</text>
</g>
<!-- 0&#45;&gt;1 -->
<g id="edge4" class="edge">
<title>0&#45;&gt;1</title>
<path fill="none" stroke="#000000" d="M461.2752,-1056.6255C459.2815,-1062.7689 457.4141,-1068.9002 455.6929,-1075 453.8079,-1081.68 452.1232,-1088.5516 450.6181,-1095.5298"/>
<polygon fill="#000000" stroke="#000000" points="450.6056,-1095.5927 453.3506,-1102.2609 448.2511,-1107.3595 445.5061,-1100.6913 450.6056,-1095.5927"/>
<text text-anchor="middle" x="495.7866" y="-1077.8" font-family="Times,serif" font-size="14.00" fill="#00ff00">alert_database</text>
</g>
<!-- 5 -->
<g id="node6" class="node">
<title>5</title>
<polygon fill="none" stroke="#000000" points="355.1636,-1435.5 355.1636,-2005.5 522.3472,-2005.5 522.3472,-1435.5 355.1636,-1435.5"/>
<text text-anchor="middle" x="438.7554" y="-1990.3" font-family="Times,serif" font-size="14.00" fill="#000000">Thread</text>
<polyline fill="none" stroke="#000000" points="355.1636,-1983.5 522.3472,-1983.5 "/>
<text text-anchor="start" x="363.1636" y="-1968.3" font-family="Times,serif" font-size="14.00" fill="#000000">__args : tuple</text>
<text text-anchor="start" x="363.1636" y="-1954.3" font-family="Times,serif" font-size="14.00" fill="#000000">__block</text>
<text text-anchor="start" x="363.1636" y="-1940.3" font-family="Times,serif" font-size="14.00" fill="#000000">__daemonic</text>
<text text-anchor="start" x="363.1636" y="-1926.3" font-family="Times,serif" font-size="14.00" fill="#000000">__exc_clear</text>
<text text-anchor="start" x="363.1636" y="-1912.3" font-family="Times,serif" font-size="14.00" fill="#000000">__exc_info</text>
<text text-anchor="start" x="363.1636" y="-1898.3" font-family="Times,serif" font-size="14.00" fill="#000000">__ident : NoneType</text>
<text text-anchor="start" x="363.1636" y="-1884.3" font-family="Times,serif" font-size="14.00" fill="#000000">__initialized : bool</text>
<text text-anchor="start" x="363.1636" y="-1870.3" font-family="Times,serif" font-size="14.00" fill="#000000">__initialized : bool</text>
<text text-anchor="start" x="363.1636" y="-1856.3" font-family="Times,serif" font-size="14.00" fill="#000000">__kwargs : dict, NoneType</text>
<text text-anchor="start" x="363.1636" y="-1842.3" font-family="Times,serif" font-size="14.00" fill="#000000">__name : str</text>
<text text-anchor="start" x="363.1636" y="-1828.3" font-family="Times,serif" font-size="14.00" fill="#000000">__started</text>
<text text-anchor="start" x="363.1636" y="-1814.3" font-family="Times,serif" font-size="14.00" fill="#000000">__stderr : file</text>
<text text-anchor="start" x="363.1636" y="-1800.3" font-family="Times,serif" font-size="14.00" fill="#000000">__stopped : bool</text>
<text text-anchor="start" x="363.1636" y="-1786.3" font-family="Times,serif" font-size="14.00" fill="#000000">__target : NoneType</text>
<text text-anchor="start" x="363.1636" y="-1772.3" font-family="Times,serif" font-size="14.00" fill="#000000">_block</text>
<text text-anchor="start" x="363.1636" y="-1758.3" font-family="Times,serif" font-size="14.00" fill="#000000">daemon</text>
<text text-anchor="start" x="363.1636" y="-1744.3" font-family="Times,serif" font-size="14.00" fill="#000000">daemon</text>
<text text-anchor="start" x="363.1636" y="-1730.3" font-family="Times,serif" font-size="14.00" fill="#000000">ident</text>
<text text-anchor="start" x="363.1636" y="-1716.3" font-family="Times,serif" font-size="14.00" fill="#000000">is_alive</text>
<text text-anchor="start" x="363.1636" y="-1702.3" font-family="Times,serif" font-size="14.00" fill="#000000">name</text>
<text text-anchor="start" x="363.1636" y="-1688.3" font-family="Times,serif" font-size="14.00" fill="#000000">name</text>
<polyline fill="none" stroke="#000000" points="355.1636,-1681.5 522.3472,-1681.5 "/>
<text text-anchor="start" x="363.1636" y="-1666.3" font-family="Times,serif" font-size="14.00" fill="#000000">__bootstrap()</text>
<text text-anchor="start" x="363.1636" y="-1652.3" font-family="Times,serif" font-size="14.00" fill="#000000">__bootstrap_inner()</text>
<text text-anchor="start" x="363.1636" y="-1638.3" font-family="Times,serif" font-size="14.00" fill="#000000">__delete()</text>
<text text-anchor="start" x="363.1636" y="-1624.3" font-family="Times,serif" font-size="14.00" fill="#000000">__init__()</text>
<text text-anchor="start" x="363.1636" y="-1610.3" font-family="Times,serif" font-size="14.00" fill="#000000">__repr__()</text>
<text text-anchor="start" x="363.1636" y="-1596.3" font-family="Times,serif" font-size="14.00" fill="#000000">__stop()</text>
<text text-anchor="start" x="363.1636" y="-1582.3" font-family="Times,serif" font-size="14.00" fill="#000000">_reset_internal_locks()</text>
<text text-anchor="start" x="363.1636" y="-1568.3" font-family="Times,serif" font-size="14.00" fill="#000000">_set_daemon()</text>
<text text-anchor="start" x="363.1636" y="-1554.3" font-family="Times,serif" font-size="14.00" fill="#000000">_set_ident()</text>
<text text-anchor="start" x="363.1636" y="-1540.3" font-family="Times,serif" font-size="14.00" fill="#000000">getName()</text>
<text text-anchor="start" x="363.1636" y="-1526.3" font-family="Times,serif" font-size="14.00" fill="#000000">isAlive()</text>
<text text-anchor="start" x="363.1636" y="-1512.3" font-family="Times,serif" font-size="14.00" fill="#000000">isDaemon()</text>
<text text-anchor="start" x="363.1636" y="-1498.3" font-family="Times,serif" font-size="14.00" fill="#000000">join()</text>
<text text-anchor="start" x="363.1636" y="-1484.3" font-family="Times,serif" font-size="14.00" fill="#000000">run()</text>
<text text-anchor="start" x="363.1636" y="-1470.3" font-family="Times,serif" font-size="14.00" fill="#000000">setDaemon()</text>
<text text-anchor="start" x="363.1636" y="-1456.3" font-family="Times,serif" font-size="14.00" fill="#000000">setName()</text>
<text text-anchor="start" x="363.1636" y="-1442.3" font-family="Times,serif" font-size="14.00" fill="#000000">start()</text>
</g>
<!-- 1&#45;&gt;5 -->
<g id="edge1" class="edge">
<title>1&#45;&gt;5</title>
<path fill="none" stroke="#000000" d="M438.7554,-1397.6928C438.7554,-1406.6608 438.7554,-1415.8331 438.7554,-1425.1448"/>
<polygon fill="none" stroke="#000000" points="435.2555,-1425.3007 438.7554,-1435.3007 442.2555,-1425.3008 435.2555,-1425.3007"/>
</g>
<!-- 2 -->
<g id="node3" class="node">
<title>2</title>
<polygon fill="none" stroke="#000000" points="175.7568,-689.5 175.7568,-965.5 413.7539,-965.5 413.7539,-689.5 175.7568,-689.5"/>
<text text-anchor="middle" x="294.7554" y="-950.3" font-family="Times,serif" font-size="14.00" fill="#000000">FolderDispatcher</text>
<polyline fill="none" stroke="#000000" points="175.7568,-943.5 413.7539,-943.5 "/>
<text text-anchor="start" x="183.7568" y="-928.3" font-family="Times,serif" font-size="14.00" fill="#000000">JSONS_ERROR_PROCESSED_PATH</text>
<text text-anchor="start" x="183.7568" y="-914.3" font-family="Times,serif" font-size="14.00" fill="#000000">JSONS_PATH</text>
<text text-anchor="start" x="183.7568" y="-900.3" font-family="Times,serif" font-size="14.00" fill="#000000">JSONS_PATH : str</text>
<text text-anchor="start" x="183.7568" y="-886.3" font-family="Times,serif" font-size="14.00" fill="#000000">JSONS_PROCESSED_PATH</text>
<text text-anchor="start" x="183.7568" y="-872.3" font-family="Times,serif" font-size="14.00" fill="#000000">ROOT_PATH : str</text>
<text text-anchor="start" x="183.7568" y="-858.3" font-family="Times,serif" font-size="14.00" fill="#000000">daemon : bool</text>
<text text-anchor="start" x="183.7568" y="-844.3" font-family="Times,serif" font-size="14.00" fill="#000000">m</text>
<text text-anchor="start" x="183.7568" y="-830.3" font-family="Times,serif" font-size="14.00" fill="#000000">mapping_cfg</text>
<text text-anchor="start" x="183.7568" y="-816.3" font-family="Times,serif" font-size="14.00" fill="#000000">shared_array</text>
<text text-anchor="start" x="183.7568" y="-802.3" font-family="Times,serif" font-size="14.00" fill="#000000">shared_thread_event</text>
<polyline fill="none" stroke="#000000" points="175.7568,-795.5 413.7539,-795.5 "/>
<text text-anchor="start" x="183.7568" y="-780.3" font-family="Times,serif" font-size="14.00" fill="#000000">__init__()</text>
<text text-anchor="start" x="183.7568" y="-766.3" font-family="Times,serif" font-size="14.00" fill="#000000">folder_dispatcher()</text>
<text text-anchor="start" x="183.7568" y="-752.3" font-family="Times,serif" font-size="14.00" fill="#000000">move_to_error_folder()</text>
<text text-anchor="start" x="183.7568" y="-738.3" font-family="Times,serif" font-size="14.00" fill="#000000">move_to_folder()</text>
<text text-anchor="start" x="183.7568" y="-724.3" font-family="Times,serif" font-size="14.00" fill="#000000">move_to_processed_folder()</text>
<text text-anchor="start" x="183.7568" y="-710.3" font-family="Times,serif" font-size="14.00" fill="#000000">reload_cfg()</text>
<text text-anchor="start" x="183.7568" y="-696.3" font-family="Times,serif" font-size="14.00" fill="#000000">run()</text>
</g>
<!-- 2&#45;&gt;1 -->
<g id="edge5" class="edge">
<title>2&#45;&gt;1</title>
<path fill="none" stroke="#000000" d="M341.6075,-965.779C355.6707,-1007.2847 371.1977,-1053.111 385.635,-1095.721"/>
<polygon fill="#000000" stroke="#000000" points="385.7256,-1095.9888 391.4395,-1100.3878 389.5765,-1107.3541 383.8626,-1102.9551 385.7256,-1095.9888"/>
<text text-anchor="middle" x="385.5864" y="-1077.8" font-family="Times,serif" font-size="14.00" fill="#00ff00">fd</text>
</g>
<!-- 2&#45;&gt;5 -->
<g id="edge2" class="edge">
<title>2&#45;&gt;5</title>
<path fill="none" stroke="#000000" d="M296.7815,-965.5268C300.5384,-1081.7831 310.8556,-1252.0055 338.7554,-1398 342.6261,-1418.255 347.3214,-1439.0332 352.5415,-1459.8082"/>
<polygon fill="none" stroke="#000000" points="349.1958,-1460.8525 355.06,-1469.6764 355.9784,-1459.1214 349.1958,-1460.8525"/>
</g>
<!-- 3 -->
<g id="node4" class="node">
<title>3</title>
<polygon fill="none" stroke="#000000" points="142.8311,-313.5 142.8311,-491.5 274.6797,-491.5 274.6797,-313.5 142.8311,-313.5"/>
<text text-anchor="middle" x="208.7554" y="-476.3" font-family="Times,serif" font-size="14.00" fill="#000000">Mapping</text>
<polyline fill="none" stroke="#000000" points="142.8311,-469.5 274.6797,-469.5 "/>
<text text-anchor="start" x="150.8311" y="-454.3" font-family="Times,serif" font-size="14.00" fill="#000000">CFG_JSON_PATH</text>
<text text-anchor="start" x="150.8311" y="-440.3" font-family="Times,serif" font-size="14.00" fill="#000000">CONFIG_PATH</text>
<text text-anchor="start" x="150.8311" y="-426.3" font-family="Times,serif" font-size="14.00" fill="#000000">FILE_NAME : str</text>
<text text-anchor="start" x="150.8311" y="-412.3" font-family="Times,serif" font-size="14.00" fill="#000000">ROOT_PATH : str</text>
<text text-anchor="start" x="150.8311" y="-398.3" font-family="Times,serif" font-size="14.00" fill="#000000">mapping_hash : dict</text>
<polyline fill="none" stroke="#000000" points="142.8311,-391.5 274.6797,-391.5 "/>
<text text-anchor="start" x="150.8311" y="-376.3" font-family="Times,serif" font-size="14.00" fill="#000000">__init__()</text>
<text text-anchor="start" x="150.8311" y="-362.3" font-family="Times,serif" font-size="14.00" fill="#000000">get_first_key()</text>
<text text-anchor="start" x="150.8311" y="-348.3" font-family="Times,serif" font-size="14.00" fill="#000000">map_alert_to_hash()</text>
<text text-anchor="start" x="150.8311" y="-334.3" font-family="Times,serif" font-size="14.00" fill="#000000">mapping_to_hash()</text>
<text text-anchor="start" x="150.8311" y="-320.3" font-family="Times,serif" font-size="14.00" fill="#000000">remove_ws()</text>
</g>
<!-- 3&#45;&gt;2 -->
<g id="edge6" class="edge">
<title>3&#45;&gt;2</title>
<path fill="none" stroke="#000000" d="M226.7838,-491.5939C237.6576,-545.3309 251.7918,-615.1803 264.353,-677.2556"/>
<polygon fill="#000000" stroke="#000000" points="264.3807,-677.3928 269.4912,-682.4803 266.7607,-689.1544 261.6502,-684.067 264.3807,-677.3928"/>
<text text-anchor="middle" x="250.2002" y="-568.8" font-family="Times,serif" font-size="14.00" fill="#00ff00">m</text>
</g>
<!-- 3&#45;&gt;2 -->
<g id="edge7" class="edge">
<title>3&#45;&gt;2</title>
<path fill="none" stroke="#000000" d="M239.58,-491.7157C247.0152,-515.6263 254.3606,-541.6128 259.7554,-566 267.6439,-601.6604 274.0139,-640.4756 279.0459,-677.0208"/>
<polygon fill="#000000" stroke="#000000" points="279.1005,-677.4267 283.8652,-682.8395 280.7014,-689.3195 275.9367,-683.9067 279.1005,-677.4267"/>
<text text-anchor="middle" x="268.2002" y="-568.8" font-family="Times,serif" font-size="14.00" fill="#00ff00">m</text>
</g>
<!-- 4 -->
<g id="node5" class="node">
<title>4</title>
<polygon fill="none" stroke="#000000" points="0,-738.5 0,-916.5 157.5107,-916.5 157.5107,-738.5 0,-738.5"/>
<text text-anchor="middle" x="78.7554" y="-901.3" font-family="Times,serif" font-size="14.00" fill="#000000">RabbitMqDispatcher</text>
<polyline fill="none" stroke="#000000" points="0,-894.5 157.5107,-894.5 "/>
<text text-anchor="start" x="8" y="-879.3" font-family="Times,serif" font-size="14.00" fill="#000000">daemon : bool</text>
<text text-anchor="start" x="8" y="-865.3" font-family="Times,serif" font-size="14.00" fill="#000000">dispatcher_options_array</text>
<text text-anchor="start" x="8" y="-851.3" font-family="Times,serif" font-size="14.00" fill="#000000">m</text>
<text text-anchor="start" x="8" y="-837.3" font-family="Times,serif" font-size="14.00" fill="#000000">mapping_cfg</text>
<text text-anchor="start" x="8" y="-823.3" font-family="Times,serif" font-size="14.00" fill="#000000">shared_array</text>
<text text-anchor="start" x="8" y="-809.3" font-family="Times,serif" font-size="14.00" fill="#000000">shared_thread_event</text>
<polyline fill="none" stroke="#000000" points="0,-802.5 157.5107,-802.5 "/>
<text text-anchor="start" x="8" y="-787.3" font-family="Times,serif" font-size="14.00" fill="#000000">__init__()</text>
<text text-anchor="start" x="8" y="-773.3" font-family="Times,serif" font-size="14.00" fill="#000000">idea_dispatcher()</text>
<text text-anchor="start" x="8" y="-759.3" font-family="Times,serif" font-size="14.00" fill="#000000">reload_cfg()</text>
<text text-anchor="start" x="8" y="-745.3" font-family="Times,serif" font-size="14.00" fill="#000000">run()</text>
</g>
<!-- 3&#45;&gt;4 -->
<g id="edge8" class="edge">
<title>3&#45;&gt;4</title>
<path fill="none" stroke="#000000" d="M171.5659,-491.7272C162.2406,-515.6377 152.6768,-541.6213 144.8657,-566 128.1018,-618.3211 112.8178,-677.6105 101.1783,-726.4914"/>
<polygon fill="#000000" stroke="#000000" points="101.1334,-726.6818 103.647,-733.4406 98.3748,-738.3604 95.8612,-731.6015 101.1334,-726.6818"/>
<text text-anchor="middle" x="151.2002" y="-568.8" font-family="Times,serif" font-size="14.00" fill="#00ff00">m</text>
</g>
<!-- 3&#45;&gt;4 -->
<g id="edge9" class="edge">
<title>3&#45;&gt;4</title>
<path fill="none" stroke="#000000" d="M182.2642,-491.9485C173.856,-520.1425 164.4767,-551.3906 155.7554,-580 141.0288,-628.3092 124.4155,-681.829 110.4001,-726.7061"/>
<polygon fill="#000000" stroke="#000000" points="110.3814,-726.7662 112.4096,-733.6862 106.8021,-738.22 104.7738,-731.3 110.3814,-726.7662"/>
<text text-anchor="middle" x="164.2002" y="-568.8" font-family="Times,serif" font-size="14.00" fill="#00ff00">m</text>
</g>
<!-- 4&#45;&gt;1 -->
<g id="edge10" class="edge">
<title>4&#45;&gt;1</title>
<path fill="none" stroke="#000000" d="M99.8012,-916.7042C113.5771,-961.94 135.0302,-1015.8576 166.7554,-1057 212.2214,-1115.9619 280.2435,-1164.8463 336.888,-1198.9856"/>
<polygon fill="#000000" stroke="#000000" points="337.0085,-1199.0572 344.2099,-1198.6838 347.3244,-1205.1877 340.1229,-1205.561 337.0085,-1199.0572"/>
<text text-anchor="middle" x="196.5864" y="-1077.8" font-family="Times,serif" font-size="14.00" fill="#00ff00">fd</text>
</g>
<!-- 4&#45;&gt;5 -->
<g id="edge3" class="edge">
<title>4&#45;&gt;5</title>
<path fill="none" stroke="#000000" d="M112.7477,-916.6629C129.0093,-959.1856 148.8035,-1010.7555 166.7554,-1057 225.6835,-1208.8006 238.9404,-1247.3519 300.7554,-1398 316.734,-1436.9412 334.1437,-1478.3629 351.0471,-1518.0873"/>
<polygon fill="none" stroke="#000000" points="347.8482,-1519.5087 354.987,-1527.3374 354.2884,-1516.7656 347.8482,-1519.5087"/>
</g>
<!-- 6 -->
<g id="node7" class="node">
<title>6</title>
<polygon fill="none" stroke="#000000" points="822.2026,-257.5 822.2026,-547.5 945.3081,-547.5 945.3081,-257.5 822.2026,-257.5"/>
<text text-anchor="middle" x="883.7554" y="-532.3" font-family="Times,serif" font-size="14.00" fill="#000000">_Condition</text>
<polyline fill="none" stroke="#000000" points="822.2026,-525.5 945.3081,-525.5 "/>
<text text-anchor="start" x="830.2026" y="-510.3" font-family="Times,serif" font-size="14.00" fill="#000000">__lock : NoneType</text>
<text text-anchor="start" x="830.2026" y="-496.3" font-family="Times,serif" font-size="14.00" fill="#000000">__waiters : list</text>
<text text-anchor="start" x="830.2026" y="-482.3" font-family="Times,serif" font-size="14.00" fill="#000000">_acquire_restore</text>
<text text-anchor="start" x="830.2026" y="-468.3" font-family="Times,serif" font-size="14.00" fill="#000000">_is_owned</text>
<text text-anchor="start" x="830.2026" y="-454.3" font-family="Times,serif" font-size="14.00" fill="#000000">_release_save</text>
<text text-anchor="start" x="830.2026" y="-440.3" font-family="Times,serif" font-size="14.00" fill="#000000">acquire</text>
<text text-anchor="start" x="830.2026" y="-426.3" font-family="Times,serif" font-size="14.00" fill="#000000">notify_all</text>
<text text-anchor="start" x="830.2026" y="-412.3" font-family="Times,serif" font-size="14.00" fill="#000000">release</text>
<polyline fill="none" stroke="#000000" points="822.2026,-405.5 945.3081,-405.5 "/>
<text text-anchor="start" x="830.2026" y="-390.3" font-family="Times,serif" font-size="14.00" fill="#000000">__enter__()</text>
<text text-anchor="start" x="830.2026" y="-376.3" font-family="Times,serif" font-size="14.00" fill="#000000">__exit__()</text>
<text text-anchor="start" x="830.2026" y="-362.3" font-family="Times,serif" font-size="14.00" fill="#000000">__init__()</text>
<text text-anchor="start" x="830.2026" y="-348.3" font-family="Times,serif" font-size="14.00" fill="#000000">__repr__()</text>
<text text-anchor="start" x="830.2026" y="-334.3" font-family="Times,serif" font-size="14.00" fill="#000000">_acquire_restore()</text>
<text text-anchor="start" x="830.2026" y="-320.3" font-family="Times,serif" font-size="14.00" fill="#000000">_is_owned()</text>
<text text-anchor="start" x="830.2026" y="-306.3" font-family="Times,serif" font-size="14.00" fill="#000000">_release_save()</text>
<text text-anchor="start" x="830.2026" y="-292.3" font-family="Times,serif" font-size="14.00" fill="#000000">notify()</text>
<text text-anchor="start" x="830.2026" y="-278.3" font-family="Times,serif" font-size="14.00" fill="#000000">notifyAll()</text>
<text text-anchor="start" x="830.2026" y="-264.3" font-family="Times,serif" font-size="14.00" fill="#000000">wait()</text>
</g>
<!-- 6&#45;&gt;5 -->
<g id="edge11" class="edge">
<title>6&#45;&gt;5</title>
<path fill="none" stroke="#000000" d="M897.7771,-547.7632C898.1519,-553.9214 898.4816,-560.0203 898.7554,-566 899.0399,-572.2157 898.788,-573.7779 898.7554,-580 896.8246,-948.3962 965.4842,-1089.0866 764.7554,-1398 701.2391,-1495.7489 603.7294,-1587.1857 531.8929,-1647.552"/>
<polygon fill="#000000" stroke="#000000" points="531.5909,-1647.804 529.5472,-1654.7195 522.3776,-1655.4928 524.4213,-1648.5773 531.5909,-1647.804"/>
<text text-anchor="middle" x="921.3071" y="-1077.8" font-family="Times,serif" font-size="14.00" fill="#00ff00">__block</text>
</g>
<!-- 7 -->
<g id="node8" class="node">
<title>7</title>
<polygon fill="none" stroke="#000000" points="739.2241,-745.5 739.2241,-909.5 884.2866,-909.5 884.2866,-745.5 739.2241,-745.5"/>
<text text-anchor="middle" x="811.7554" y="-894.3" font-family="Times,serif" font-size="14.00" fill="#000000">_Event</text>
<polyline fill="none" stroke="#000000" points="739.2241,-887.5 884.2866,-887.5 "/>
<text text-anchor="start" x="747.2241" y="-872.3" font-family="Times,serif" font-size="14.00" fill="#000000">__cond</text>
<text text-anchor="start" x="747.2241" y="-858.3" font-family="Times,serif" font-size="14.00" fill="#000000">__flag : bool</text>
<text text-anchor="start" x="747.2241" y="-844.3" font-family="Times,serif" font-size="14.00" fill="#000000">is_set</text>
<polyline fill="none" stroke="#000000" points="739.2241,-837.5 884.2866,-837.5 "/>
<text text-anchor="start" x="747.2241" y="-822.3" font-family="Times,serif" font-size="14.00" fill="#000000">__init__()</text>
<text text-anchor="start" x="747.2241" y="-808.3" font-family="Times,serif" font-size="14.00" fill="#000000">_reset_internal_locks()</text>
<text text-anchor="start" x="747.2241" y="-794.3" font-family="Times,serif" font-size="14.00" fill="#000000">clear()</text>
<text text-anchor="start" x="747.2241" y="-780.3" font-family="Times,serif" font-size="14.00" fill="#000000">isSet()</text>
<text text-anchor="start" x="747.2241" y="-766.3" font-family="Times,serif" font-size="14.00" fill="#000000">set()</text>
<text text-anchor="start" x="747.2241" y="-752.3" font-family="Times,serif" font-size="14.00" fill="#000000">wait()</text>
</g>
<!-- 6&#45;&gt;7 -->
<g id="edge12" class="edge">
<title>6&#45;&gt;7</title>
<path fill="none" stroke="#000000" d="M859.1784,-547.5722C848.7821,-608.9393 836.9679,-678.676 827.7321,-733.1931"/>
<polygon fill="#000000" stroke="#000000" points="827.687,-733.4597 830.6286,-740.0435 825.6825,-745.2911 822.741,-738.7072 827.687,-733.4597"/>
<text text-anchor="middle" x="874.3623" y="-568.8" font-family="Times,serif" font-size="14.00" fill="#00ff00">__cond</text>
</g>
<!-- 7&#45;&gt;1 -->
<g id="edge13" class="edge">
<title>7&#45;&gt;1</title>
<path fill="none" stroke="#000000" d="M804.0482,-909.5271C794.8448,-959.7869 774.7154,-1021.1513 730.7554,-1057 685.2666,-1094.0954 651.8435,-1047.627 599.9204,-1075 577.8291,-1086.6462 557.2402,-1102.5831 538.663,-1120.1599"/>
<polygon fill="#000000" stroke="#000000" points="538.5783,-1120.2426 537.0779,-1127.2959 529.9901,-1128.6237 531.4905,-1121.5704 538.5783,-1120.2426"/>
<text text-anchor="middle" x="657.6729" y="-1077.8" font-family="Times,serif" font-size="14.00" fill="#00ff00">shared_thread_event</text>
</g>
<!-- 7&#45;&gt;5 -->
<g id="edge14" class="edge">
<title>7&#45;&gt;5</title>
<path fill="none" stroke="#000000" d="M784.4647,-909.574C769.4096,-953.5871 749.9233,-1008.5797 730.7554,-1057 667.0004,-1218.0519 587.3989,-1397.7095 527.4172,-1529.4174"/>
<polygon fill="#000000" stroke="#000000" points="527.3836,-1529.4912 528.5343,-1536.6099 522.4058,-1540.4101 521.2551,-1533.2914 527.3836,-1529.4912"/>
<text text-anchor="middle" x="735.4141" y="-1248.3" font-family="Times,serif" font-size="14.00" fill="#00ff00">__started</text>
</g>
<!-- 8 -->
<g id="node9" class="node">
<title>8</title>
<polygon fill="none" stroke="#000000" points="816.7612,-.5 816.7612,-206.5 950.7495,-206.5 950.7495,-.5 816.7612,-.5"/>
<text text-anchor="middle" x="883.7554" y="-191.3" font-family="Times,serif" font-size="14.00" fill="#000000">_RLock</text>
<polyline fill="none" stroke="#000000" points="816.7612,-184.5 950.7495,-184.5 "/>
<text text-anchor="start" x="824.7612" y="-169.3" font-family="Times,serif" font-size="14.00" fill="#000000">__block</text>
<text text-anchor="start" x="824.7612" y="-155.3" font-family="Times,serif" font-size="14.00" fill="#000000">__count : int</text>
<text text-anchor="start" x="824.7612" y="-141.3" font-family="Times,serif" font-size="14.00" fill="#000000">__enter__</text>
<text text-anchor="start" x="824.7612" y="-127.3" font-family="Times,serif" font-size="14.00" fill="#000000">__owner : NoneType</text>
<polyline fill="none" stroke="#000000" points="816.7612,-120.5 950.7495,-120.5 "/>
<text text-anchor="start" x="824.7612" y="-105.3" font-family="Times,serif" font-size="14.00" fill="#000000">__exit__()</text>
<text text-anchor="start" x="824.7612" y="-91.3" font-family="Times,serif" font-size="14.00" fill="#000000">__init__()</text>
<text text-anchor="start" x="824.7612" y="-77.3" font-family="Times,serif" font-size="14.00" fill="#000000">__repr__()</text>
<text text-anchor="start" x="824.7612" y="-63.3" font-family="Times,serif" font-size="14.00" fill="#000000">_acquire_restore()</text>
<text text-anchor="start" x="824.7612" y="-49.3" font-family="Times,serif" font-size="14.00" fill="#000000">_is_owned()</text>
<text text-anchor="start" x="824.7612" y="-35.3" font-family="Times,serif" font-size="14.00" fill="#000000">_release_save()</text>
<text text-anchor="start" x="824.7612" y="-21.3" font-family="Times,serif" font-size="14.00" fill="#000000">acquire()</text>
<text text-anchor="start" x="824.7612" y="-7.3" font-family="Times,serif" font-size="14.00" fill="#000000">release()</text>
</g>
<!-- 8&#45;&gt;6 -->
<g id="edge15" class="edge">
<title>8&#45;&gt;6</title>
<path fill="none" stroke="#000000" d="M883.7554,-206.8175C883.7554,-219.3534 883.7554,-232.3697 883.7554,-245.4633"/>
<polygon fill="#000000" stroke="#000000" points="883.7555,-245.4982 887.7554,-251.4982 883.7554,-257.4982 879.7554,-251.4982 883.7555,-245.4982"/>
<text text-anchor="middle" x="902.8071" y="-227.8" font-family="Times,serif" font-size="14.00" fill="#00ff00">__lock</text>
</g>
<!-- 9 -->
<g id="node10" class="node">
<title>9</title>
<polygon fill="none" stroke="#000000" points="467.499,-362.5 467.499,-442.5 638.0117,-442.5 638.0117,-362.5 467.499,-362.5"/>
<text text-anchor="middle" x="552.7554" y="-427.3" font-family="Times,serif" font-size="14.00" fill="#000000">defaultdict</text>
<polyline fill="none" stroke="#000000" points="467.499,-420.5 638.0117,-420.5 "/>
<text text-anchor="start" x="475.499" y="-405.3" font-family="Times,serif" font-size="14.00" fill="#000000">default_factory : NoneType</text>
<polyline fill="none" stroke="#000000" points="467.499,-398.5 638.0117,-398.5 "/>
<text text-anchor="start" x="475.499" y="-383.3" font-family="Times,serif" font-size="14.00" fill="#000000">__getitem__()</text>
<text text-anchor="start" x="475.499" y="-369.3" font-family="Times,serif" font-size="14.00" fill="#000000">__missing__()</text>
</g>
<!-- 9&#45;&gt;0 -->
<g id="edge16" class="edge">
<title>9&#45;&gt;0</title>
<path fill="none" stroke="#000000" d="M485.8573,-442.5479C440.5464,-475.3773 391.8985,-525.2271 409.686,-580 412.7396,-589.4029 417.0958,-589.8939 422.7554,-598 423.5108,-599.0819 424.2677,-600.1671 425.026,-601.2553"/>
<polygon fill="#000000" stroke="#000000" points="425.0377,-601.2722 431.7466,-603.9162 431.8863,-611.126 425.1774,-608.4819 425.0377,-601.2722"/>
<text text-anchor="middle" x="446.29" y="-568.8" font-family="Times,serif" font-size="14.00" fill="#00ff00">database_cfg</text>
</g>
<!-- 9&#45;&gt;0 -->
<g id="edge17" class="edge">
<title>9&#45;&gt;0</title>
<path fill="none" stroke="#000000" d="M537.7213,-442.7976C526.3714,-475.4763 511.7518,-523.0045 505.686,-566 504.7516,-572.6238 504.1401,-579.3185 503.8188,-586.0557"/>
<polygon fill="#000000" stroke="#000000" points="503.8151,-586.2257 507.6797,-592.3138 503.5464,-598.2227 499.6817,-592.1347 503.8151,-586.2257"/>
<text text-anchor="middle" x="541.29" y="-568.8" font-family="Times,serif" font-size="14.00" fill="#00ff00">database_cfg</text>
</g>
<!-- 9&#45;&gt;0 -->
<g id="edge18" class="edge">
<title>9&#45;&gt;0</title>
<path fill="none" stroke="#000000" d="M560.9442,-442.6036C567.2383,-475.5735 575.4047,-523.5939 578.7554,-566 579.275,-572.5768 579.7293,-579.2495 580.1238,-585.986"/>
<polygon fill="#000000" stroke="#000000" points="580.1346,-586.1907 584.447,-591.9702 580.7707,-598.1738 576.4583,-592.3943 580.1346,-586.1907"/>
<text text-anchor="middle" x="625.4072" y="-568.8" font-family="Times,serif" font-size="14.00" fill="#00ff00">alert_probability</text>
</g>
<!-- 9&#45;&gt;0 -->
<g id="edge19" class="edge">
<title>9&#45;&gt;0</title>
<path fill="none" stroke="#000000" d="M595.0022,-442.7555C623.9278,-473.405 659.8262,-518.3289 675.7554,-566 677.9946,-572.7012 679.6591,-579.4857 680.8072,-586.3223"/>
<polygon fill="#000000" stroke="#000000" points="680.812,-586.3618 685.523,-591.8213 682.2953,-598.2698 677.5843,-592.8102 680.812,-586.3618"/>
<text text-anchor="middle" x="724.4072" y="-568.8" font-family="Times,serif" font-size="14.00" fill="#00ff00">alert_probability</text>
</g>
</g>
</svg>
