<?xml version="1.0" encoding="UTF-8" standalone="no"?>
<!DOCTYPE svg PUBLIC "-//W3C//DTD SVG 1.1//EN"
 "http://www.w3.org/Graphics/SVG/1.1/DTD/svg11.dtd">
<!-- Generated by graphviz version 2.40.1 (20161225.0304)
 -->
<!-- Title: packages_Filter Pages: 1 -->
<svg width="73pt" height="116pt"
 viewBox="0.00 0.00 72.99 116.00" xmlns="http://www.w3.org/2000/svg" xmlns:xlink="http://www.w3.org/1999/xlink">
<g id="graph0" class="graph" transform="scale(1 1) rotate(0) translate(4 112)">
<title>packages_Filter</title>
<polygon fill="#ffffff" stroke="transparent" points="-4,4 -4,-112 68.9932,-112 68.9932,4 -4,4"/>
<!-- 0 -->
<g id="node1" class="node">
<title>0</title>
<polygon fill="none" stroke="#000000" points="59.4966,-36 5.4966,-36 5.4966,0 59.4966,0 59.4966,-36"/>
<text text-anchor="middle" x="32.4966" y="-13.8" font-family="Times,serif" font-size="14.00" fill="#000000">filter</text>
</g>
<!-- 1 -->
<g id="node2" class="node">
<title>1</title>
<polygon fill="none" stroke="#000000" points="64.9897,-108 .0034,-108 .0034,-72 64.9897,-72 64.9897,-108"/>
<text text-anchor="middle" x="32.4966" y="-85.8" font-family="Times,serif" font-size="14.00" fill="#000000">mapping</text>
</g>
<!-- 0&#45;&gt;1 -->
<g id="edge1" class="edge">
<title>0&#45;&gt;1</title>
<path fill="none" stroke="#000000" d="M32.4966,-36.1686C32.4966,-43.869 32.4966,-53.0257 32.4966,-61.5834"/>
<polygon fill="#000000" stroke="#000000" points="32.4966,-71.5867 27.9967,-61.5867 32.4966,-66.5867 32.4967,-61.5867 32.4967,-61.5867 32.4967,-61.5867 32.4966,-66.5867 36.9967,-61.5868 32.4966,-71.5867 32.4966,-71.5867"/>
</g>
</g>
</svg>
